<?xml version="1.0" encoding="UTF-8"?>
<svg id="Layer_1" data-name="Layer 1" xmlns="http://www.w3.org/2000/svg" viewBox="0 0 516.35 150.86">
  <defs>
    <style>
      .cls-1 {
        fill: #fff;
        stroke-width: 0px;
      }
    </style>
  </defs>
  <g id="y769lf.tif">
    <g>
      <path class="cls-1" d="m163.93,78.66c1.15-1.44,2.08-2.56,2.95-3.72,4.02-5.36,7.99-10.76,12.08-16.07.91-1.19,2.21-2.08,3.34-3.09.24-.22.59-.35.76-.61,1.18-1.79,2.33-3.6,3.47-5.42.58-.93,1-1.98,1.69-2.82,6.49-7.82,12.93-15.69,20.59-22.44,2.26-1.99,4.96-2.29,7.47-.91,2.46,1.35,3.19,3.3,2.29,5.97-3.42,10.19-6.83,20.38-10.19,30.58-.18.54.07,1.22.12,1.83.51-.23,1.15-.33,1.51-.7,3.01-3.04,6.15-5.99,8.92-9.24,5.25-6.18,11.12-11.7,17.23-17,5.47-4.76,10.61-9.92,16.23-14.47,6.65-5.39,13.67-10.33,20.54-15.44,1.36-1.01,2.85-1.37,4.49-.6,1.24.58,2.56,1,3.73,1.68,2.05,1.21,2.64,2.97,1.43,5.05-1.35,2.31-3.16,4.35-4.55,6.64-4.55,7.5-9.23,14.94-13.44,22.63-12.85,23.5-24.1,47.79-35.23,72.15-3.9,8.53-6.61,17.42-8.8,26.5-.63,2.62-.22,5.23.55,7.8.71,2.36-.25,3.68-2.71,3.88-3.46.28-6.94-2.94-6.93-6.69.01-5.87.97-11.59,3.31-17.02,3.18-7.41,6.28-14.85,9.55-22.21,1.95-4.4,3.82-8.84,7.01-12.59.82-.97,1.13-2.46,1.44-3.76.37-1.54.87-2.88,2.2-3.91.56-.43,1.15-1.36,1.07-1.97-.31-2.15.61-3.6,2.16-4.85.64-.52,1.38-.98,1.84-1.64.35-.5.41-1.25.47-1.89.08-.91-.23-1.96.11-2.74,1.65-3.7,3.47-7.33,5.23-10.99.21-.44.6-.86.66-1.32.67-5.29,4.27-9.29,6.15-14.06,1.87-4.72,4.51-9.13,6.79-13.69.84-1.66,1.68-3.33,2.4-5.05.21-.5-.01-1.18-.04-1.78-.64.1-1.45-.01-1.89.34-3.62,2.85-7.29,5.66-10.73,8.73-18.34,16.33-34.42,34.68-48.73,54.6-1.12,1.56-2.09,3.22-3.18,4.81-2.7,3.94-5.85,4.01-9.05.51-1.89-2.07-2.2-3.86-.91-6.46,2.99-5.98,5.87-12.04,8.34-18.25,2.24-5.65,3.89-11.53,5.76-17.32.73-2.24,1.42-4.5,2.05-6.77.26-.93.31-1.93.46-2.89-.19-.11-.38-.22-.57-.32-.65.4-1.46.68-1.94,1.23-3.53,4.05-7.17,8.03-10.45,12.28-9.55,12.33-19.06,24.7-28.35,37.22-2.62,3.54-4.52,7.63-6.59,11.55-1.06,2.02-2.52,3.41-4.62,4.19-1.8.67-3.48.35-4.56-.84-1.03-1.14-1.16-2.65-.01-4.41,3.53-5.42,7.15-10.78,10.75-16.16.44-.66.95-1.28,1.17-2.2-.56.37-1.14.72-1.69,1.11-11.06,7.85-22.11,15.72-33.17,23.56-2.56,1.81-5.33,3.21-8.38,1.4-1.56-.93-2.87-2.35-4.1-3.72-1.17-1.31-.59-2.92-.18-4.4,2.26-8.13,6.36-15.38,10.65-22.55,1.78-2.97,3.62-5.89,5.43-8.84.28-.45.53-.92.93-1.63-1.04,0-1.84-.03-2.63,0-4.01.17-8.02.35-12.02.52-2.31.1-3.28.75-3.61,3.03-1.45,9.9-6.69,17.88-12.83,25.38-2.89,3.53-5.94,6.92-9.01,10.29-1.61,1.76-3.48,3.18-6.07,3.25-1.67.04-2.99-.59-4.03-1.85-1.56-1.89-2.31-4.07-2.33-6.53-.03-3.8.62-7.42,2.37-10.82,4.05-7.86,8.07-15.74,13.41-22.83,1.68-2.23,3.55-4.34,5.54-6.29,3.2-3.14,6.95-3.8,11.81-.07.49.37,1.17.71,1.76.71,6.87-.09,13.74-.24,20.61-.43.41-.01.97-.31,1.2-.65,2.81-4.07,5.62-8.13,8.29-12.28.59-.92,1.15-2.46.77-3.27-.62-1.31-2.03-.24-3.1-.07-2.22.35-4.43.75-6.66,1.01-2.28.27-3.39-.38-3.56-1.91-.22-1.95,1.14-3.75,3.05-4.05,3.47-.54,6.99-.88,10.4-1.68,4.29-1,7.92-3.17,10.19-7.18,1.65-2.91,3.41-5.76,5.09-8.65,1.5-2.58,2.95-3.29,4.83-2.31,2.84,1.48,3.81,3.8,2.62,6.36-.32.69-.78,1.32-1.22,1.94-.51.71-1.14,1.35-1.6,2.09-.68,1.1-1.65,2.19-.91,3.62.71,1.38,2.11,1.36,3.42,1.55,2.86.42,5.71.88,8.55,1.41.61.11,1.16.59,1.73.92.98.57,1.25,1.31.57,2.32-.46.68-.83,1.42-1.25,2.13-.85,1.42-2.05,1.89-3.74,1.79-4-.24-8.01-.31-12.02-.36-2.53-.03-4.42,1.27-6.14,3.05-6.36,6.59-10.79,14.48-15.56,22.19-5.23,8.44-9.05,17.53-13.24,26.47-.18.39-.09.9-.12,1.35.56-.02,1.25.16,1.66-.11,2.54-1.63,4.98-3.41,7.51-5.06,9.1-5.94,18.23-11.84,27.35-17.76.18-.12.38-.22.57-.33,2.51-1.43,3.34-1.05,4.04,2.32Zm-61.08-6.91c-.29-.11-.58-.21-.86-.32-1.27,1.25-2.6,2.43-3.78,3.75-5.48,6.11-9.2,13.33-12.84,20.59-.22.44-.39.93-.44,1.41-.12,1.11.65,1.67,1.63,1.15.57-.3,1.1-.73,1.54-1.21,1.84-2.03,3.8-3.98,5.43-6.18,3.79-5.09,7.76-10.12,9.3-16.48.21-.85.03-1.8.03-2.71Z"/>
      <path class="cls-1" d="m279.98,103.41c.32-.18.7-.31.96-.55,6.58-6.16,14.31-10.72,21.76-15.67,4.94-3.28,9.94-6.47,14.85-9.79.91-.62,1.68-1.59,2.23-2.55,2.84-4.95,5.58-9.95,8.37-14.93,1.38-2.47,2.46-2.88,4.59-1.79,2.15,1.1,2.92,3.09,1.79,5.24-2.93,5.59-5.96,11.12-8.96,16.67-.36.68-.79,1.32-1.09,2.03-.13.31-.17.91.01,1.05.28.23.86.35,1.17.21.79-.36,1.54-.84,2.23-1.37,7.61-5.86,15.2-11.74,22.79-17.62.78-.6,1.56-1.23,2.2-1.97,1.06-1.23,2.2-1.38,3.47-.48,1.43,1.01,2.86,2.03,4.21,3.14,1.18.97.72,2.27.26,3.35-1.56,3.63-3.23,7.21-4.87,10.8-.5,1.1-1.09,2.16-1.52,3.28-.2.54-.13,1.18-.18,1.78.55-.25,1.17-.4,1.63-.76,8.57-6.78,17.13-13.58,25.69-20.37,1.12-.89,2.46-2.14,3.81-1.28,1.75,1.12,3.26,2.7,4.57,4.33.36.45-.18,1.92-.66,2.71-4.93,7.98-9.94,15.91-14.9,23.88-1.62,2.61-3.17,5.26-4.74,7.9-.15.25-.17.59-.34,1.21.82-.54,1.35-.89,1.89-1.23,8.15-5.17,16.31-10.33,24.44-15.52,4.9-3.13,9.79-6.3,14.65-9.49.81-.53,1.51-1.27,2.17-1.99,4.17-4.46,8.43-8.83,13.72-12,2.49-1.49,5.02-2.91,8.12-2.84,5.24.12,9.79,4.41,10.09,9.64.06,1.1.33,2.2.23,3.28-.14,1.5-.23,3.14-.9,4.42-3.75,7.2-7.67,14.3-11.51,21.45-.57,1.06-1.17,2.13-1.59,3.25-.28.75-.28,1.61-.48,2.86.84-.43,1.27-.54,1.55-.81,5.91-5.58,12.82-9.78,19.55-14.23,5.95-3.94,11.96-7.79,17.94-11.68.46-.3.92-.69,1.43-.8.78-.18,2.02-.5,2.32-.14.58.69,1.14,2.07.81,2.72-.82,1.67-1.87,3.43-3.3,4.55-4.32,3.38-8.87,6.48-13.34,9.66-7.47,5.32-14.91,10.68-22.44,15.91-1.59,1.1-3.45,1.89-5.28,2.55-1.56.55-2.86-.16-3.77-1.58-1.83-2.86-1.78-5.95-1.1-9.07.42-1.92,1.11-3.78,1.67-5.67.15-.5.3-1.01.16-1.78-.51.31-1.1.55-1.53.94-4.98,4.57-9.89,9.2-14.92,13.72-1.7,1.53-3.65,2.79-5.53,4.12-1.21.86-2.35.58-3.45-.35-4.25-3.6-5.38-8.45-3.26-14.52.8-2.3,1.72-4.56,2.76-7.32-2.89,2.02-5.39,3.74-7.87,5.5-6.22,4.42-12.44,8.85-18.65,13.28-2.23,1.59-4.58,2.82-7.43,2.69-2.65-.11-4.24-1.76-4.26-4.42-.02-4.39,1.4-8.44,3.17-12.34,1.6-3.53,3.51-6.92,5.2-10.42.42-.86.97-2.46.64-2.74-1.1-.92-1.97.29-2.73,1-9.63,9.01-19.23,18.05-28.84,27.07-1.74,1.64-2.69,1.68-4.6.22-2.47-1.88-3.38-4.41-1.94-7.28,2.75-5.49,5.82-10.81,8.77-16.19,1.39-2.54,2.84-5.05,4.32-7.69-1.47-.66-2.55-.23-3.49.56-11.11,9.24-21.98,18.74-31.39,29.77-2.03,2.38-3.5,2.75-5.67,1.49-2.36-1.38-3.26-3.4-2.04-6.02,1.98-4.27,4.31-8.38,6.49-12.56.25-.48.51-.97.6-1.72-.42.23-.87.43-1.26.7-8.46,6-16.9,12.05-25.41,17.99-1.59,1.11-3.43,1.94-5.27,2.59-1.77.62-3.01-.11-4-1.73-1.74-2.83-1.65-5.88-.99-8.94.42-1.92,1.11-3.78,1.68-5.67.15-.5.28-1.01.11-1.76-.51.33-1.09.59-1.53.99-4.86,4.46-9.65,8.98-14.55,13.38-1.79,1.6-3.81,2.94-5.76,4.36-1.26.92-2.43.67-3.58-.31-4.24-3.63-5.21-8.42-3.24-14.55,2.35-7.31,6.72-13.4,11.33-19.36,4.01-5.19,8.56-9.92,13.84-13.82,2.65-1.96,5.65-3.68,8.75-4.76,5.76-2.01,12.39,2.79,12.82,8.87.09,1.26.36,2.53.26,3.77-.12,1.44-.26,3.01-.9,4.26-3.44,6.62-7.04,13.15-10.57,19.71-.86,1.59-1.73,3.19-2.46,4.84-.34.77-.36,1.69-.53,2.54.19.07.37.14.56.21Zm123.65-3.06c.14.05.28.1.43.15-.01,1.59.51,1.99,1.84,1.19.97-.58,1.82-1.39,2.68-2.15,8.85-7.81,17.89-15.44,25.39-24.63,1.71-2.09,3.29-4.4,4.38-6.86,1.09-2.45-1.03-4.52-3.66-3.82-1.14.3-2.26.86-3.26,1.5-10.41,6.6-18.53,15.45-24.72,26.02-1.51,2.58-2.08,5.71-3.07,8.59Zm-150.73-.05c.14.05.28.1.42.15-.03,1.67.49,2.01,1.95,1.21.52-.28,1-.67,1.45-1.07,2.21-1.98,4.34-4.05,6.61-5.95,7.18-6.01,13.84-12.53,19.85-19.7,1.77-2.11,3.33-4.5,4.46-7,1.02-2.28-1.02-4.34-3.48-3.75-1.25.3-2.47.92-3.57,1.61-10.37,6.57-18.42,15.4-24.59,25.91-1.51,2.58-2.09,5.71-3.1,8.59Z"/>
      <path class="cls-1" d="m53.29,57.49c-3.28.21-6.18.46-9.09.58-2.38.1-4.02,1.22-5.2,3.22-3.27,5.53-6.79,10.92-9.77,16.6-4.63,8.83-9.29,17.68-13.18,26.85-2.51,5.91-3.68,12.39-5.41,18.62-.72,2.58-3,3.4-5.18,1.79-2.45-1.81-3.46-5.16-2.41-8.29,3.31-9.84,7.31-19.39,12.14-28.59,1.93-3.67,3.26-7.66,5.16-11.35,2.19-4.24,4.78-8.27,7.03-12.47.63-1.17.7-2.65,1.02-3.98-1.25-.18-2.51-.58-3.75-.51-5.91.34-11.63,1.62-17.07,3.97-1.62.7-2.84.37-3.91-.98-.82-1.03-1.78-1.95-2.57-3-1.8-2.4-1.43-3.84,1.43-4.84,2.22-.78,4.53-1.3,6.81-1.89,6.79-1.73,13.7-2.6,20.69-2.8,3.73-.11,6.43-1.58,8.2-5,4.44-8.57,8.93-17.12,13.61-25.57,3.16-5.71,6.66-11.23,10.04-16.82.45-.74,1.05-1.41,1.68-2.02,1.21-1.18,2.62-1.26,4.1-.51,3.37,1.73,4.66,5.88,2.72,9.14-.95,1.59-2.08,3.1-3.27,4.54-4,4.84-7.47,10.02-10.47,15.54-2.67,4.91-5.6,9.69-8.41,14.52-.39.66-.82,1.31-1.14,2-.85,1.82-.24,2.88,1.76,3.03,7.89.58,15.79,1.09,23.67,1.76,1.68.14,2.62-.39,3.47-1.75,4.54-7.19,9.16-14.34,13.73-21.51,2.98-4.68,5.73-9.51,8.94-14.02,2.18-3.05,4.93-5.72,7.56-8.41,1.29-1.33,2.54-.97,3.42.72.51.97.95,1.98,1.34,3,1.1,2.87.73,5.4-1.5,7.72-8.05,8.37-14.18,18.15-20.2,27.99-1.17,1.92-2.45,3.78-3.68,5.66-1.62,2.48-2.65,5.12-2.67,8.17-.02,3.02-.58,3.42-3.32,4.55-1.14.47-2.38,1.35-2.99,2.39-5.22,9.02-10.83,17.83-14.8,27.51-1.92,4.69-2.49,9.52-1.26,14.51.32,1.29.68,2.77-.77,3.75-1.22.81-3.66.59-4.97-.51-2.05-1.73-3.38-3.9-3.5-6.65-.34-8.12,1.55-15.68,5.79-22.63,3.57-5.86,7.18-11.7,10.76-17.55.29-.47.56-.94.82-1.43,1.15-2.21.48-3.72-1.95-3.97-4.59-.46-9.2-.75-13.45-1.08Z"/>
      <path class="cls-1" d="m499.87,61.4c4.78-.1,7.32,2.91,6.36,7.37-.29,1.33-.78,2.63-1.34,3.87-.89,1.98-3.12,3.12-5.28,2.85-1.71-.21-1.96-.8-1.46-2.45.44-1.44.68-2.97.83-4.47.1-.99-.51-1.52-1.57-1.35-4.32.71-8.24,2.38-11.55,5.23-2.13,1.83-2.64,4.43-1.45,6.92,1.44,3.01,3.21,5.87,5.01,8.67,1.07,1.66,2.14,1.86,3.99.97,6.28-3.03,12.51-6.17,17.62-11.08.89-.86,1.99-1.59,3.12-2.09.62-.28,1.79-.23,2.21.18.56.55,1.08,1.77.84,2.4-.54,1.39-1.32,2.88-2.43,3.81-3.06,2.56-6.3,4.92-9.56,7.23-1.83,1.3-3.82,2.39-5.77,3.49-4.11,2.32-6.18,6.16-7.62,10.38-2.3,6.7-6.6,11.63-12.94,14.63-2.48,1.18-5.25,2.1-7.96,2.38-7.53.78-10.7-5.2-10.06-10.84.41-3.57,2.46-6.17,5.36-7.91,4.27-2.56,8.74-4.8,13.17-7.08,4.61-2.37,3.97-1.56,1.38-5.48-1.71-2.59-3.5-5.21-4.66-8.05-1.37-3.35-.6-6.77,2.07-9.26,5.75-5.34,12.55-8.79,20.32-10.19.54-.1,1.09-.1,1.4-.13Zm-27.75,52.9c1.1-.56,2.27-1.01,3.27-1.71,1.84-1.28,3.72-2.56,5.33-4.11,2-1.91,3.82-4.02,5.54-6.18.52-.66.47-1.77.68-2.68-.93,0-2.04-.34-2.77.04-4.91,2.52-9.77,5.12-14.57,7.84-1.37.78-1.93,2.21-1.37,3.86.56,1.64,2.02,2.67,3.89,2.93Z"/>
      <path class="cls-1" d="m460.11,29.4c1.09-2.62,2.04-5.24,3.25-7.72,2.26-4.66,4.99-9.01,8.77-12.64,2.58-2.48,3.34-2.5,5.4.35.98,1.36,1.73,2.89,2.57,4.35.98,1.7.26,3.31-.95,4.28-4.56,3.66-7.31,8.71-10.73,13.25-.96,1.27-1.91,2.55-2.99,3.72-1.25,1.36-2.45,1.24-3.27-.39-.79-1.59-1.32-3.31-2.05-5.2Z"/>
    </g>
  </g>
</svg>